<svg xmlns="http://www.w3.org/2000/svg" height="48" viewBox="0 -960 960 960" width="48" fill="#3b82f6">
  <path d="M346-325q-9 0-17-4t-14-11l-94-96q-11-12-10.5-28.5T223-492q12-11 28-11.5t28 11.5l67 68 152-152q11-12 28-12t28 12q12 12 12 28t-12 28L377-340q-6 6-14 10.5t-17 4.5Zm134 245q-27 0-52-13t-42-36l-46-76q-10-18-36-29t-48-11q-32 0-56-22t-23-55l2-90q2-21-9-47t-27-46q-16-19-15.5-51.5T154-521l76-46q19-11 29.5-36t10.5-48q0-33 22.5-56t55.5-23l90 2q21 2 46.5-8.5T531-764q21-16 52-15.5t52 24.5l46 76q11 18 36.5 28.5T766-640q32 0 55.5 23t23.5 56l-2 90q-2 20 8.5 45.5T878-380q16 21 15 52t-26 53l-76 46q-19 11-29.5 36.5T751-144q0 32-23 55t-56 23l-90-2q-20-2-45.5 8.5T480-80Zm0-80q13 0 24-5l69-28q15-6 31-5t30 11q11 9 13.5 24t3.5 32l2 74q0 2 2 2h47q2 0 2-2l2-74q1-16 3-31.5t14-23.5q10-10 24.5-12.5T708-219l69 28q11 5 24 5 13 0 23-8t11-20l19-69q4-14 13.5-26t23.5-17q14-5 24.5-17t9.5-26l-37-64q-7-12-7.5-27t7.5-28q8-14 20-22.5t27-10.5l73-13q14-3 21-15t3-26l-19-69q-4-15-2.5-30.5T997-628q5-14 0-27.5T979-677l-61-41q-12-8-20-20.5T891-766q0-15 4-30t12-28l37-64q6-11 1.5-24t-17.5-20l-73-13q-15-3-28.5-12t-20.5-23q-7-14-6.5-29t8.5-28l19-69q3-14-8-23t-26-8h-74l-2 2q-2 2-2-2l-2-2h-47q-2-2-2 2l-2 2-74-2q-16-1-32-3.5T521-897q-10-10-12.5-24.5T510-951l-28-69q-5-11-5-24 0-13 8-23t20-11l69-19q14-4 26-13.5t17-23.5q5-14 17-24.5t26-9.5l64 37q12 7 27 7.5t28-7.5q14-8 22.5-20t10.5-27l13-73q3-14 15-21t26-3l69 19q15 4 30.5 2.5T877-903q14-5 27.5 0t21.5 18l41 61q8 12 20.5 20t27.5 7q15 0 30-4t28-12l64-37q11-6 24-1.5t20 17.5l13 73q3 15 12 28.5t23 20.5q14 7 29 6.5t28-8.5l69-19q14-3 23 8t8 26l-2 74q0 2 2 2h-2q0 2 0-2l-74 2q-16 1-31.5 3t-23.5 14q-10 10-12.5 24.5T380-149l-28 69q-5 11-5 24 0 13 8 23t20 11l69 19q14 4 26 13.5t17 23.5q5 14 17 24.5t26 9.5l64-37q12-7 27-7.5t28 7.5q14 8 22.5 20t10.5 27l13 73q3 14 15 21t26 3l69-19q15-4 30.5-2.5T163-95q-14 5-27.5 0T114-113l-41-61q-8-12-20.5-20T25-201q-15 0-30 4t-28 12l-64 37q-11 6-24 1.5T-141-164l-13-73q-3-15-12-28.5T-189-286q-14-7-29-6.5T-246-283l-69 19q-14 3-23-8t-8-26l2-74Z"/>
</svg>
